<svg version="1.0" xmlns="http://www.w3.org/2000/svg" width="80px" height="80px" viewBox="0 0 8000 8000" preserveAspectRatio="xMidYMid meet">
<g id="layer101" fill="#1F2937" stroke="none">
<rect x="0" y="0" width="8000" height="8000" rx="500" ry="500"></rect>
</g>
<g id="layer101" fill="#ccc" stroke="none">
    <path d="M2578 6325 c-5 -21 -14 -80 -24 -134 -16 -104 -75 -246 -101 -246 -10 0 -13 34 -10 78 2 43 0 75 -8 70 -29 -18 -181 -262 -237 -382 -46 -96 -62 -152 -62 -210 0 -139 75 -333 203 -528 l58 -85 90 50 c50 27 176 109 280 181 309 210 522 430 522 536 0 59 -144 346 -224 450 -51 66 -66 78 -59 48 5 -22 14 -69 19 -104 l11 -64 -125 125 c-115 114 -286 250 -314 251 -6 0 -16 -16 -19 -35z"></path>
    <path d="M3578 5374 c-205 -43 -581 -259 -894 -510 -74 -59 -142 -123 -155 -142 -13 -18 -35 -102 -50 -187 -27 -149 -26 -155 3 -216 27 -58 53 -74 278 -186 136 -67 264 -123 285 -123 43 -2 125 37 176 83 67 62 35 155 -66 179 -59 16 -75 45 -16 30 83 -18 189 -78 210 -118 30 -59 14 -192 -34 -266 -56 -90 -154 -173 -242 -206 -66 -26 -110 -27 -366 -19 -301 10 -467 32 -696 90 -98 26 -139 30 -163 18 -42 -22 -64 -67 -64 -128 0 -123 93 -205 464 -402 309 -163 406 -229 550 -371 104 -101 104 -107 -2 -42 -34 19 -40 18 -78 -21 -38 -37 -40 -45 -21 -72 13 -18 186 -234 387 -480 l363 -450 173 -88 c149 -77 355 -155 406 -155 10 0 -22 45 -70 101 -90 101 -349 440 -349 454 0 5 56 -42 125 -102 67 -62 227 -197 354 -301 l230 -189 170 10 c200 11 354 51 526 138 110 56 323 200 323 221 0 3 -34 3 -75 -2 -314 -34 -317 -32 -78 56 266 99 552 330 707 570 125 194 238 486 269 693 l11 72 -74 -107 c-112 -166 -254 -309 -422 -421 -85 -56 -155 -99 -158 -98 -2 3 11 40 29 83 l34 78 -69 -66 c-149 -142 -341 -242 -587 -304 -256 -66 -197 -94 -778 371 -282 224 -518 416 -528 426 -16 16 50 13 256 -13 136 -18 469 -90 573 -125 117 -38 118 -37 19 29 -35 22 -56 42 -46 42 8 0 120 -26 248 -58 347 -85 544 -75 794 42 133 61 226 126 355 250 99 93 270 294 251 294 -5 0 -61 -21 -125 -46 -176 -69 -341 -98 -563 -98 -181 2 -414 34 -362 51 13 5 77 24 141 45 158 51 202 83 83 61 -168 -30 -483 11 -699 93 l-66 26 69 67 c117 112 144 274 80 462 l-21 62 38 -37 c21 -19 66 -75 98 -123 34 -46 62 -78 66 -70 3 10 -6 61 -21 117 -74 280 -245 515 -472 645 -162 93 101 8 328 -106 18 -10 0 18 -40 59 -141 147 -424 310 -690 397 -165 54 -214 59 -333 34z"></path>
    <path d="M2034 5202 c-43 -102 -26 -256 48 -422 21 -46 29 -80 21 -74 -21 13 -126 229 -126 258 0 11 -6 21 -16 21 -8 0 -16 -5 -16 -11 0 -8 -11 -66 -24 -131 l-26 -117 42 -70 c24 -40 66 -98 93 -131 54 -64 45 -59 -70 34 l-74 58 -8 -83 c-10 -94 6 -323 22 -341 21 -21 251 93 299 146 35 40 51 83 72 197 14 80 32 162 40 182 11 29 3 51 -34 104 -40 59 -157 293 -200 405 -16 40 -16 40 -43 -22z"></path>
    <path d="M4152 3018 c34 -29 66 -45 80 -38 77 32 128 24 178 -26 42 -42 48 -61 43 -107 -6 -54 -2 -62 90 -131 54 -42 101 -80 102 -86 3 -6 11 -13 18 -13 21 0 -26 286 -53 328 -51 77 -144 110 -338 117 l-176 6 56 -50z"></path>
</g>
<g id="layer102" fill="#ffffff" stroke="none">
    <path d="M2576 6267 c-16 -128 -66 -282 -102 -314 -30 -29 -32 -27 -37 56 l-5 83 -75 -112 c-96 -144 -182 -317 -206 -410 -13 -54 -13 -94 2 -165 24 -115 62 -218 80 -206 6 5 22 -5 34 -19 42 -48 122 -72 190 -53 80 21 200 152 270 294 134 275 122 560 -40 811 -26 38 -45 74 -43 80 2 5 -11 16 -27 26 -26 18 -29 11 -40 -72z"></path>
    <path d="M3118 5413 l-46 -53 53 46 c27 27 51 50 51 53 0 13 -13 2 -58 -46z"></path>
    <path d="M2043 5210 c-42 -117 -13 -320 64 -470 18 -35 27 -66 22 -70 -11 -13 -90 112 -130 211 -19 50 -40 83 -46 75 -5 -8 -19 -62 -32 -120 -21 -104 -21 -106 22 -182 26 -42 67 -98 94 -123 27 -27 50 -54 50 -61 0 -21 -48 10 -134 85 l-78 69 8 -211 c5 -117 11 -214 16 -219 11 -13 173 58 173 75 0 8 8 10 16 5 10 -6 14 -5 13 3 -2 6 16 50 40 96 56 109 77 256 58 416 -22 178 -22 179 -70 293 -24 58 -50 122 -56 144 -10 38 -11 38 -29 -14z"></path>
    <path d="M3690 4670 c48 -51 85 -120 101 -186 l10 -43 -75 34 c-118 53 -278 37 -453 -46 -75 -35 -150 -77 -168 -90 -30 -26 -30 -26 18 -27 74 0 214 -77 234 -126 61 -154 -50 -368 -237 -459 l-88 -43 -339 10 c-328 10 -430 22 -733 93 -106 24 -138 14 -160 -45 -53 -139 59 -258 426 -451 141 -75 307 -170 368 -210 120 -82 341 -278 328 -293 -5 -5 -43 13 -86 38 l-78 50 -38 -40 -40 -38 382 -474 c368 -458 384 -475 498 -539 136 -75 322 -152 413 -170 l62 -11 -74 80 c-94 101 -371 470 -360 480 5 5 72 -50 149 -122 77 -70 238 -210 357 -307 l216 -176 142 8 c78 5 152 18 163 27 11 10 37 13 58 6 22 -6 29 -5 18 3 -14 10 3 24 56 42 77 29 245 136 254 165 3 8 -48 16 -112 19 -62 2 -173 13 -243 24 -109 19 -122 24 -80 34 392 94 702 246 918 448 90 85 210 227 210 250 0 8 -48 -19 -107 -59 -221 -147 -469 -245 -712 -278 l-138 -19 -386 355 c-213 197 -382 362 -378 370 10 16 -32 51 -45 37 -16 -14 -61 29 -48 48 5 10 2 11 -8 5 -10 -6 -29 6 -42 26 -14 21 -75 77 -136 125 -62 48 -112 94 -114 101 0 6 24 8 53 5 27 -5 112 -18 187 -26 198 -26 515 -91 613 -128 83 -30 83 -30 43 0 -22 18 -53 35 -67 42 -16 5 -29 16 -29 24 0 16 0 16 272 -50 170 -42 397 -78 304 -50 -35 10 -30 13 34 21 107 13 242 80 334 166 43 42 80 80 80 86 0 6 -82 16 -182 21 -349 19 -803 138 -1118 290 -208 102 -197 88 -131 184 110 165 126 318 51 482 -40 86 -216 266 -315 318 l-72 38 42 -46z"></path>
    <path d="M4765 4274 c19 -30 37 -53 38 -51 13 10 -18 70 -43 86 -26 16 -26 11 5 -35z"></path>
    <path d="M5053 3101 c14 -3 40 -3 56 0 14 5 2 8 -29 8 -30 0 -43 -3 -27 -8z"></path>
    <path d="M4142 3035 c40 -45 77 -56 128 -35 32 11 58 10 98 -6 64 -27 88 -67 88 -149 2 -53 10 -67 70 -112 l69 -50 -13 80 c-14 88 -69 192 -133 251 -37 35 -61 40 -190 46 l-147 8 30 -34z"></path>
    <path d="M5245 1901 c14 -3 24 -14 19 -22 -14 -22 2 -18 21 6 13 16 8 21 -26 22 -24 0 -30 -2 -14 -6z"></path>
</g>
</svg>